<?xml version="1.0" encoding="UTF-8"?>
<svg id="_Шар_1" data-name="Шар 1" xmlns="http://www.w3.org/2000/svg" viewBox="0 0 2000 2000">
  <g>
    <circle cx="434.98" cy="913.54" r="80.58"/>
    <circle cx="605.37" cy="913.54" r="80.58"/>
    <circle cx="434.98" cy="1086.46" r="80.58"/>
    <circle cx="605.37" cy="1086.46" r="80.58"/>
  </g>
  <g>
    <g>
      <path d="M827.26,861c27.77,0,46.83,14.16,55.54,29.68v-27.22h25.05v149.2h-25.05v-27.77c-8.98,16.06-28.31,30.22-55.81,30.22-39.75,0-70.51-31.31-70.51-77.59s30.77-76.5,70.79-76.5ZM832.16,882.51c-27.22,0-50.37,19.87-50.37,54.99s23.14,55.81,50.37,55.81,50.64-20.42,50.64-55.54-23.41-55.27-50.64-55.27Z"/>
      <path d="M955.21,883.87h-19.33v-20.42h19.33v-37.57h24.78v37.57h38.93v20.42h-38.93v87.94c0,14.7,5.44,19.88,20.69,19.88h18.24v20.96h-22.32c-26.41,0-41.38-10.89-41.38-40.84v-87.94Z"/>
      <path d="M1113.92,1015.09c-42.2,0-74.33-29.95-74.33-77.32s33.22-76.77,75.41-76.77,75.41,29.68,75.41,76.77-34.03,77.32-76.5,77.32ZM1113.92,993.31c25.86,0,51.18-17.7,51.18-55.54s-24.77-55.27-50.37-55.27-49.82,17.7-49.82,55.27,23.14,55.54,49.01,55.54Z"/>
      <path d="M1438.44,928.24c0-30.49-16.33-46.01-40.84-46.01s-42.2,16.06-42.2,48.19v82.22h-24.5v-84.4c0-30.49-16.34-46.01-40.84-46.01s-42.2,16.06-42.2,48.19v82.22h-24.78v-149.2h24.78v21.51c9.8-15.79,27.5-24.23,47.1-24.23,24.5,0,44.92,10.89,54.72,33.22,8.71-21.51,29.95-33.22,52.82-33.22,34.03,0,60.44,21.24,60.44,63.98v87.94h-24.5v-84.4Z"/>
      <path d="M1565.01,861c27.77,0,46.83,14.16,55.54,29.68v-27.22h25.05v149.2h-25.05v-27.77c-8.98,16.06-28.31,30.22-55.81,30.22-39.75,0-70.51-31.31-70.51-77.59s30.77-76.5,70.79-76.5ZM1569.91,882.51c-27.22,0-50.37,19.87-50.37,54.99s23.14,55.81,50.37,55.81,50.64-20.42,50.64-55.54-23.41-55.27-50.64-55.27Z"/>
    </g>
    <g>
      <path d="M790.03,1068.7c13.16,0,22.2,6.71,26.32,14.07v-12.9h11.87v70.72h-11.87v-13.16c-4.26,7.61-13.42,14.32-26.45,14.32-18.84,0-33.42-14.84-33.42-36.78s14.58-36.26,33.55-36.26ZM792.35,1078.89c-12.9,0-23.87,9.42-23.87,26.07s10.97,26.45,23.87,26.45,24-9.68,24-26.33-11.1-26.2-24-26.2Z"/>
      <path d="M848.09,1045.08h11.74v95.49h-11.74v-95.49Z"/>
      <path d="M918.03,1068.7c18.97,0,33.55,14.19,33.55,36.26s-14.58,36.78-33.55,36.78c-12.9,0-22.07-6.97-26.45-14.2v46.58h-11.74v-104.27h11.74v13.03c4.26-7.48,13.55-14.19,26.45-14.19ZM915.58,1078.89c-12.78,0-24,9.81-24,26.2s11.23,26.33,24,26.33,24-9.81,24-26.45-10.97-26.07-24-26.07Z"/>
      <path d="M967.06,1045.08h11.74v34.97c4.65-7.48,13.42-11.49,23.36-11.49,15.74,0,28.26,10.07,28.26,30.33v41.68h-11.61v-40c0-14.45-7.87-21.81-19.74-21.81s-20.26,7.48-20.26,22.71v39.1h-11.74v-95.49Z"/>
      <path d="M1078.8,1068.7c13.16,0,22.2,6.71,26.32,14.07v-12.9h11.87v70.72h-11.87v-13.16c-4.26,7.61-13.42,14.32-26.45,14.32-18.84,0-33.42-14.84-33.42-36.78s14.58-36.26,33.55-36.26ZM1081.13,1078.89c-12.9,0-23.87,9.42-23.87,26.07s10.97,26.45,23.87,26.45,24-9.68,24-26.33-11.1-26.2-24-26.2Z"/>
    </g>
  </g>
</svg>